<?xml version="1.0" encoding="utf-8"?>
<!-- Svg Vector Icons : http://www.onlinewebfonts.com/icon -->
<!DOCTYPE svg PUBLIC "-//W3C//DTD SVG 1.1//EN" "http://www.w3.org/Graphics/SVG/1.1/DTD/svg11.dtd">
<svg version="1.1" xmlns="http://www.w3.org/2000/svg" xmlns:xlink="http://www.w3.org/1999/xlink" x="0px" y="0px" viewBox="0 0 1000 1000" enable-background="new 0 0 1000 1000" xml:space="preserve">
<metadata> Svg Vector Icons : http://www.onlinewebfonts.com/icon </metadata>
<g><g transform="translate(0.000000,511.000000) scale(0.100000,-0.100000)"><path d="M854.6,4976.6c-342.8-80.5-651-391.1-729.2-736.1C109.2,4173.8,100,3058,100,1079.6c0-3319.6-4.6-3170,126.5-3413.9c82.8-151.8,278.4-335.9,430.2-404.9c179.4-82.8,368.1-103.5,911-103.5h487.7v-966.2c0-531.4,4.6-966.2,11.5-966.2c6.9,0,591.2,434.8,1299.8,966.2l1288.3,966.2h2132.5c1368.8,0,2187.7,9.2,2282.1,25.3c391.1,62.1,694.7,340.4,796,722.3c29.9,119.6,34.5,517.6,34.5,3167.7c0,2157.8-6.9,3064.2-25.3,3151.6c-64.4,296.8-262.3,542.9-549.8,683.2l-172.5,82.8L5046,4995C2713.3,4995,902.9,4988.1,854.6,4976.6z M8933.8,1079.6v-2956.1H6637.9H4339.8l-641.8-483.1c-352-264.6-648.7-483.1-657.9-483.1c-11.5,0-18.4,218.6-18.4,483.1v483.1h-977.7h-977.7v2956.1v2956.1H5000h3933.8V1079.6z"/><path d="M4894.2,3025.8c-354.3-87.4-492.3-508.4-255.4-775.3c250.8-287.6,724.7-184,823.6,179.4C5552.1,2770.5,5230.1,3108.7,4894.2,3025.8z"/><path d="M4516.9,355V-864.2H5000h483.1V355v1219.2H5000h-483.1V355z"/></g></g>
</svg>